{
    "asset" : {
        "generator" : "Khronos glTF Blender I/O v1.4.40",
        "version" : "2.0"
    },
    "scene" : 0,
    "scenes" : [
        {
            "name" : "Scene",
            "nodes" : [
                0,
                1
            ]
        }
    ],
    "nodes" : [
        {
            "name" : "Empty",
            "rotation" : [
                0.7071068286895752,
                0,
                0,
                0.7071067094802856
            ],
            "translation" : [
                -0.046611618250608444,
                0.17412199079990387,
                -3
            ]
        },
        {
            "mesh" : 0,
            "name" : "Cylinder",
            "scale" : [
                1,
                1.940460205078125,
                1
            ]
        }
    ],
    "materials" : [
        {
            "doubleSided" : true,
            "name" : "WoodFineDark004_3K",
            "pbrMetallicRoughness" : {
                "metallicFactor" : 0
            }
        }
    ],
    "meshes" : [
        {
            "name" : "Cylinder",
            "primitives" : [
                {
                    "attributes" : {
                        "POSITION" : 0,
                        "NORMAL" : 1,
                        "TEXCOORD_0" : 2
                    },
                    "indices" : 3,
                    "material" : 0
                }
            ]
        }
    ],
    "accessors" : [
        {
            "bufferView" : 0,
            "componentType" : 5126,
            "count" : 1248,
            "max" : [
                1.7809836864471436,
                1.008207082748413,
                1.7809840440750122
            ],
            "min" : [
                -1.7809839248657227,
                -1,
                -1.780983567237854
            ],
            "type" : "VEC3"
        },
        {
            "bufferView" : 1,
            "componentType" : 5126,
            "count" : 1248,
            "type" : "VEC3"
        },
        {
            "bufferView" : 2,
            "componentType" : 5126,
            "count" : 1248,
            "type" : "VEC2"
        },
        {
            "bufferView" : 3,
            "componentType" : 5123,
            "count" : 6324,
            "type" : "SCALAR"
        }
    ],
    "bufferViews" : [
        {
            "buffer" : 0,
            "byteLength" : 14976,
            "byteOffset" : 0
        },
        {
            "buffer" : 0,
            "byteLength" : 14976,
            "byteOffset" : 14976
        },
        {
            "buffer" : 0,
            "byteLength" : 9984,
            "byteOffset" : 29952
        },
        {
            "buffer" : 0,
            "byteLength" : 12648,
            "byteOffset" : 39936
        }
    ],
    "buffers" : [
        {
            "byteLength" : 52584,
            "uri" : "data:application/octet-stream;base64,"
        }
    ]
}
